<svg xmlns="http://www.w3.org/2000/svg" width="800" height="800" viewBox="0 0 800 800">
      <defs>
        <mask id="hole-mask">
          <rect width="800" height="800" fill="white" /><rect x="320" y="80" width="280" height="210" rx="20" ry="20" fill="black" /><rect x="100" y="480" width="380" height="285" rx="20" ry="20" fill="black" />
        </mask>
        
      </defs>
      <!-- Base Background Card -->
      <rect width="800" height="800" fill="#fafbfa" mask="url(#hole-mask)" />
      
      <!-- Slot outlines (adds a very nice border around punched slots for photo alignment) -->
      <rect x="320" y="80" width="280" height="210" rx="20" ry="20" fill="none" stroke="#111111" stroke-width="4" opacity="0.3" />
<rect x="100" y="480" width="380" height="285" rx="20" ry="20" fill="none" stroke="#111111" stroke-width="4" opacity="0.3" />
      
      <!-- Outer Border -->
      <rect width="800" height="800" fill="none" stroke="#111111" stroke-width="12" />
      
      <!-- Decorations Layer -->
      
      <rect x="0" y="0" width="800" height="40" fill="#1d4ed8" />
      <circle cx="30" cy="20" r="7" fill="#eab308" stroke="#111" stroke-width="1.5" /><line x1="30" y1="20" x2="32" y2="16" stroke="#111" stroke-width="1.5" /><rect x="55" y="12" width="18" height="13" fill="#15803d" stroke="#111" stroke-width="1.5" rx="1" /><line x1="55" y1="20" x2="73" y2="20" stroke="#111" stroke-width="1.5" /><rect x="85" y="12" width="12" height="12" fill="#b91c1c" stroke="#111" stroke-width="1.5" transform="rotate(45, 91, 18)" /><circle cx="120" cy="20" r="7" fill="#eab308" stroke="#111" stroke-width="1.5" /><line x1="120" y1="20" x2="122" y2="16" stroke="#111" stroke-width="1.5" /><rect x="145" y="12" width="18" height="13" fill="#15803d" stroke="#111" stroke-width="1.5" rx="1" /><line x1="145" y1="20" x2="163" y2="20" stroke="#111" stroke-width="1.5" /><rect x="175" y="12" width="12" height="12" fill="#b91c1c" stroke="#111" stroke-width="1.5" transform="rotate(45, 181, 18)" /><circle cx="210" cy="20" r="7" fill="#eab308" stroke="#111" stroke-width="1.5" /><line x1="210" y1="20" x2="212" y2="16" stroke="#111" stroke-width="1.5" /><rect x="235" y="12" width="18" height="13" fill="#15803d" stroke="#111" stroke-width="1.5" rx="1" /><line x1="235" y1="20" x2="253" y2="20" stroke="#111" stroke-width="1.5" /><rect x="265" y="12" width="12" height="12" fill="#b91c1c" stroke="#111" stroke-width="1.5" transform="rotate(45, 271, 18)" /><circle cx="300" cy="20" r="7" fill="#eab308" stroke="#111" stroke-width="1.5" /><line x1="300" y1="20" x2="302" y2="16" stroke="#111" stroke-width="1.5" /><rect x="325" y="12" width="18" height="13" fill="#15803d" stroke="#111" stroke-width="1.5" rx="1" /><line x1="325" y1="20" x2="343" y2="20" stroke="#111" stroke-width="1.5" /><rect x="355" y="12" width="12" height="12" fill="#b91c1c" stroke="#111" stroke-width="1.5" transform="rotate(45, 361, 18)" /><circle cx="390" cy="20" r="7" fill="#eab308" stroke="#111" stroke-width="1.5" /><line x1="390" y1="20" x2="392" y2="16" stroke="#111" stroke-width="1.5" /><rect x="415" y="12" width="18" height="13" fill="#15803d" stroke="#111" stroke-width="1.5" rx="1" /><line x1="415" y1="20" x2="433" y2="20" stroke="#111" stroke-width="1.5" /><rect x="445" y="12" width="12" height="12" fill="#b91c1c" stroke="#111" stroke-width="1.5" transform="rotate(45, 451, 18)" /><circle cx="480" cy="20" r="7" fill="#eab308" stroke="#111" stroke-width="1.5" /><line x1="480" y1="20" x2="482" y2="16" stroke="#111" stroke-width="1.5" /><rect x="505" y="12" width="18" height="13" fill="#15803d" stroke="#111" stroke-width="1.5" rx="1" /><line x1="505" y1="20" x2="523" y2="20" stroke="#111" stroke-width="1.5" /><rect x="535" y="12" width="12" height="12" fill="#b91c1c" stroke="#111" stroke-width="1.5" transform="rotate(45, 541, 18)" /><circle cx="570" cy="20" r="7" fill="#eab308" stroke="#111" stroke-width="1.5" /><line x1="570" y1="20" x2="572" y2="16" stroke="#111" stroke-width="1.5" /><rect x="595" y="12" width="18" height="13" fill="#15803d" stroke="#111" stroke-width="1.5" rx="1" /><line x1="595" y1="20" x2="613" y2="20" stroke="#111" stroke-width="1.5" /><rect x="625" y="12" width="12" height="12" fill="#b91c1c" stroke="#111" stroke-width="1.5" transform="rotate(45, 631, 18)" /><circle cx="660" cy="20" r="7" fill="#eab308" stroke="#111" stroke-width="1.5" /><line x1="660" y1="20" x2="662" y2="16" stroke="#111" stroke-width="1.5" /><rect x="685" y="12" width="18" height="13" fill="#15803d" stroke="#111" stroke-width="1.5" rx="1" /><line x1="685" y1="20" x2="703" y2="20" stroke="#111" stroke-width="1.5" /><rect x="715" y="12" width="12" height="12" fill="#b91c1c" stroke="#111" stroke-width="1.5" transform="rotate(45, 721, 18)" /><circle cx="750" cy="20" r="7" fill="#eab308" stroke="#111" stroke-width="1.5" /><line x1="750" y1="20" x2="752" y2="16" stroke="#111" stroke-width="1.5" /><rect x="775" y="12" width="18" height="13" fill="#15803d" stroke="#111" stroke-width="1.5" rx="1" /><line x1="775" y1="20" x2="793" y2="20" stroke="#111" stroke-width="1.5" /><rect x="805" y="12" width="12" height="12" fill="#b91c1c" stroke="#111" stroke-width="1.5" transform="rotate(45, 811, 18)" />
      <rect x="0" y="760" width="800" height="40" fill="#1d4ed8" />
      <circle cx="30" cy="780" r="7" fill="#eab308" stroke="#111" stroke-width="1.5" /><line x1="30" y1="780" x2="32" y2="776" stroke="#111" stroke-width="1.5" /><rect x="55" y="773" width="18" height="13" fill="#15803d" stroke="#111" stroke-width="1.5" rx="1" /><line x1="55" y1="781" x2="73" y2="781" stroke="#111" stroke-width="1.5" /><rect x="85" y="773" width="12" height="12" fill="#b91c1c" stroke="#111" stroke-width="1.5" transform="rotate(45, 91, 779)" /><circle cx="120" cy="780" r="7" fill="#eab308" stroke="#111" stroke-width="1.5" /><line x1="120" y1="780" x2="122" y2="776" stroke="#111" stroke-width="1.5" /><rect x="145" y="773" width="18" height="13" fill="#15803d" stroke="#111" stroke-width="1.5" rx="1" /><line x1="145" y1="781" x2="163" y2="781" stroke="#111" stroke-width="1.5" /><rect x="175" y="773" width="12" height="12" fill="#b91c1c" stroke="#111" stroke-width="1.5" transform="rotate(45, 181, 779)" /><circle cx="210" cy="780" r="7" fill="#eab308" stroke="#111" stroke-width="1.5" /><line x1="210" y1="780" x2="212" y2="776" stroke="#111" stroke-width="1.5" /><rect x="235" y="773" width="18" height="13" fill="#15803d" stroke="#111" stroke-width="1.5" rx="1" /><line x1="235" y1="781" x2="253" y2="781" stroke="#111" stroke-width="1.5" /><rect x="265" y="773" width="12" height="12" fill="#b91c1c" stroke="#111" stroke-width="1.5" transform="rotate(45, 271, 779)" /><circle cx="300" cy="780" r="7" fill="#eab308" stroke="#111" stroke-width="1.5" /><line x1="300" y1="780" x2="302" y2="776" stroke="#111" stroke-width="1.5" /><rect x="325" y="773" width="18" height="13" fill="#15803d" stroke="#111" stroke-width="1.5" rx="1" /><line x1="325" y1="781" x2="343" y2="781" stroke="#111" stroke-width="1.5" /><rect x="355" y="773" width="12" height="12" fill="#b91c1c" stroke="#111" stroke-width="1.5" transform="rotate(45, 361, 779)" /><circle cx="390" cy="780" r="7" fill="#eab308" stroke="#111" stroke-width="1.5" /><line x1="390" y1="780" x2="392" y2="776" stroke="#111" stroke-width="1.5" /><rect x="415" y="773" width="18" height="13" fill="#15803d" stroke="#111" stroke-width="1.5" rx="1" /><line x1="415" y1="781" x2="433" y2="781" stroke="#111" stroke-width="1.5" /><rect x="445" y="773" width="12" height="12" fill="#b91c1c" stroke="#111" stroke-width="1.5" transform="rotate(45, 451, 779)" /><circle cx="480" cy="780" r="7" fill="#eab308" stroke="#111" stroke-width="1.5" /><line x1="480" y1="780" x2="482" y2="776" stroke="#111" stroke-width="1.5" /><rect x="505" y="773" width="18" height="13" fill="#15803d" stroke="#111" stroke-width="1.5" rx="1" /><line x1="505" y1="781" x2="523" y2="781" stroke="#111" stroke-width="1.5" /><rect x="535" y="773" width="12" height="12" fill="#b91c1c" stroke="#111" stroke-width="1.5" transform="rotate(45, 541, 779)" /><circle cx="570" cy="780" r="7" fill="#eab308" stroke="#111" stroke-width="1.5" /><line x1="570" y1="780" x2="572" y2="776" stroke="#111" stroke-width="1.5" /><rect x="595" y="773" width="18" height="13" fill="#15803d" stroke="#111" stroke-width="1.5" rx="1" /><line x1="595" y1="781" x2="613" y2="781" stroke="#111" stroke-width="1.5" /><rect x="625" y="773" width="12" height="12" fill="#b91c1c" stroke="#111" stroke-width="1.5" transform="rotate(45, 631, 779)" /><circle cx="660" cy="780" r="7" fill="#eab308" stroke="#111" stroke-width="1.5" /><line x1="660" y1="780" x2="662" y2="776" stroke="#111" stroke-width="1.5" /><rect x="685" y="773" width="18" height="13" fill="#15803d" stroke="#111" stroke-width="1.5" rx="1" /><line x1="685" y1="781" x2="703" y2="781" stroke="#111" stroke-width="1.5" /><rect x="715" y="773" width="12" height="12" fill="#b91c1c" stroke="#111" stroke-width="1.5" transform="rotate(45, 721, 779)" /><circle cx="750" cy="780" r="7" fill="#eab308" stroke="#111" stroke-width="1.5" /><line x1="750" y1="780" x2="752" y2="776" stroke="#111" stroke-width="1.5" /><rect x="775" y="773" width="18" height="13" fill="#15803d" stroke="#111" stroke-width="1.5" rx="1" /><line x1="775" y1="781" x2="793" y2="781" stroke="#111" stroke-width="1.5" /><rect x="805" y="773" width="12" height="12" fill="#b91c1c" stroke="#111" stroke-width="1.5" transform="rotate(45, 811, 779)" />
      <g font-family="'Outfit', 'Plus Jakarta Sans', sans-serif" font-weight="900" font-size="72" fill="#111" opacity="0.95" letter-spacing="-3">
        <text x="80" y="160">Not</text>
        <text x="720" y="160" text-anchor="end">just</text>
        <text x="310" y="380" font-size="60">moments,</text>
        <text x="80" y="450">this</text>
        <text x="720" y="450" text-anchor="end" font-size="64">holiday</text>
        <text x="720" y="580" text-anchor="end" font-size="64">make</text>
        <text x="320" y="700" font-size="64">them real</text>
      </g>
      <text x="100" y="820" font-family="'Outfit', sans-serif" font-weight="800" font-size="28" fill="#111">with fremio</text>
    
      
      <!-- Branding Logo Text -->
      <text x="400" y="780" font-family="'Plus Jakarta Sans', 'Outfit', sans-serif" font-weight="800" font-size="15" fill="#111111" letter-spacing="3" text-anchor="middle">SNAPVIBE ✦ STUDIO</text>
    </svg>