<svg xmlns="http://www.w3.org/2000/svg" width="162" height="288" viewBox="0 0 540 960">
      <defs>
        <mask id="hole-mask">
          <rect width="540" height="960" fill="white" /><rect x="40" y="200" width="220" height="165" rx="20" ry="20" fill="black" /><rect x="40" y="385" width="220" height="165" rx="20" ry="20" fill="black" /><rect x="40" y="570" width="220" height="165" rx="20" ry="20" fill="black" /><rect x="300" y="270" width="200" height="180" rx="20" ry="20" fill="black" /><rect x="300" y="530" width="200" height="180" rx="20" ry="20" fill="black" />
        </mask>
        
      <pattern id="strawberry-pat" width="160" height="160" patternUnits="userSpaceOnUse">
        <rect width="160" height="160" fill="#f5f2eb" />
        <text x="10" y="20" font-family="serif" font-size="9" fill="#e2decb" opacity="0.8">LES FRAISES DE L'ETE</text>
        <text x="10" y="35" font-family="serif" font-size="7" fill="#e2decb" opacity="0.6">Le choix fraises de France, Choice Strawberry...</text>
        <path d="M120,80 C110,60 135,50 140,75 C140,90 120,95 120,80 Z" fill="#ef4444" opacity="0.15" />
        <circle cx="120" cy="65" r="2" fill="green" opacity="0.2" />
      </pattern>
      <pattern id="red-gingham" width="20" height="20" patternUnits="userSpaceOnUse">
        <rect width="20" height="20" fill="#ffffff" />
        <rect width="10" height="20" fill="#7f1d1d" opacity="0.4" />
        <rect width="20" height="10" fill="#7f1d1d" opacity="0.4" />
      </pattern>
    
      </defs>
      <!-- Base Background Card -->
      <rect width="540" height="960" fill="url(#strawberry-pat)" mask="url(#hole-mask)" />
      
      <!-- Slot outlines (adds a very nice border around punched slots for photo alignment) -->
      <rect x="40" y="200" width="220" height="165" rx="20" ry="20" fill="none" stroke="#7f1d1d" stroke-width="4" opacity="0.3" />
<rect x="40" y="385" width="220" height="165" rx="20" ry="20" fill="none" stroke="#7f1d1d" stroke-width="4" opacity="0.3" />
<rect x="40" y="570" width="220" height="165" rx="20" ry="20" fill="none" stroke="#7f1d1d" stroke-width="4" opacity="0.3" />
<rect x="300" y="270" width="200" height="180" rx="20" ry="20" fill="none" stroke="#7f1d1d" stroke-width="4" opacity="0.3" />
<rect x="300" y="530" width="200" height="180" rx="20" ry="20" fill="none" stroke="#7f1d1d" stroke-width="4" opacity="0.3" />
      
      <!-- Outer Border -->
      <rect width="540" height="960" fill="none" stroke="#7f1d1d" stroke-width="12" />
      
      <!-- Decorations Layer -->
      
      <rect x="30" y="170" width="240" height="610" fill="#7f1d1d" rx="10" ry="10" />
      <g transform="rotate(-6, 400, 360)">
        <rect x="285" y="245" width="220" height="230" fill="url(#red-gingham)" stroke="#7f1d1d" stroke-width="2" rx="6" ry="6" />
        <rect x="295" y="255" width="200" height="180" fill="#ffffff" />
      </g>
      <g transform="rotate(4, 400, 620)">
        <rect x="285" y="505" width="220" height="230" fill="url(#red-gingham)" stroke="#7f1d1d" stroke-width="2" rx="6" ry="6" />
        <rect x="295" y="515" width="200" height="180" fill="#ffffff" />
      </g>
      <g transform="translate(150, 770)">
        <rect x="-90" y="-20" width="180" height="40" fill="#ffffff" rx="20" ry="20" stroke="#7f1d1d" stroke-width="3" />
        <text x="0" y="8" font-family="'Sacramento', 'Dancing Script', cursive" font-weight="bold" font-size="22" fill="#7f1d1d" text-anchor="middle">Strawberry</text>
      </g>
      <g transform="translate(120, 110) scale(1.3)" fill="#7f1d1d" opacity="0.9">
        <circle cx="0" cy="0" r="16" fill="#f87171" stroke="#7f1d1d" stroke-width="2" />
        <ellipse cx="-6" cy="-18" rx="5" ry="12" fill="#f87171" stroke="#7f1d1d" stroke-width="2" transform="rotate(-10, -6, -18)" />
        <ellipse cx="6" cy="-18" rx="5" ry="12" fill="#f87171" stroke="#7f1d1d" stroke-width="2" transform="rotate(10, 6, -18)" />
      </g>
      <rect x="260" y="115" width="240" height="45" fill="#faf5e6" stroke="#15803d" stroke-width="2" rx="6" ry="6" />
      <line x1="260" y1="125" x2="500" y2="125" stroke="#15803d" stroke-dasharray="2,2" />
      <g transform="translate(380, 875)">
        <rect x="-70" y="-12" width="140" height="24" fill="#15803d" rx="4" ry="4" />
        <text x="0" y="5" font-family="sans-serif" font-weight="bold" font-size="10" fill="white" text-anchor="middle" letter-spacing="1">FAIRIES WELCOME</text>
      </g>
    
      
      <!-- Branding Logo Text -->
      <text x="270" y="935" font-family="'Plus Jakarta Sans', 'Outfit', sans-serif" font-weight="800" font-size="14" fill="#7f1d1d" letter-spacing="3" text-anchor="middle">SNAPVIBE ✦ MEMORIES</text>
    </svg>