<svg xmlns="http://www.w3.org/2000/svg" width="600" height="700" viewBox="0 0 600 700">
      <defs>
        <mask id="hole-mask">
          <rect width="600" height="700" fill="white" /><rect x="40" y="40" width="520" height="520" rx="20" ry="20" fill="black" />
        </mask>
        
      <linearGradient id="cloud-grad" x1="0%" y1="0%" x2="100%" y2="100%">
        <stop offset="0%" stop-color="#bae6fd" />
        <stop offset="100%" stop-color="#ddd6fe" />
      </linearGradient>
    
      </defs>
      <!-- Base Background Card -->
      <rect width="600" height="700" fill="url(#cloud-grad)" mask="url(#hole-mask)" />
      
      <!-- Slot outlines (adds a very nice border around punched slots for photo alignment) -->
      <rect x="40" y="40" width="520" height="520" rx="20" ry="20" fill="none" stroke="#0284c7" stroke-width="4" opacity="0.3" />
      
      <!-- Outer Border -->
      <rect width="600" height="700" fill="none" stroke="#0284c7" stroke-width="12" />
      
      <!-- Decorations Layer -->
      
      <path d="M 100,560 Q 300,420 500,560" stroke="#f43f5e" stroke-width="8" fill="none" opacity="0.6" />
      <path d="M 110,560 Q 300,432 490,560" stroke="#f59e0b" stroke-width="8" fill="none" opacity="0.6" />
      <path d="M 120,560 Q 300,444 480,560" stroke="#10b981" stroke-width="8" fill="none" opacity="0.6" />
      <path d="M 130,560 Q 300,456 470,560" stroke="#3b82f6" stroke-width="8" fill="none" opacity="0.6" />
      
      <g transform="translate(80, 520)" fill="white">
        <path d="M20,10 a10,10 0 0,1 18,-2 a8,8 0 0,1 11,8 a6,6 0 0,1 -6,6 h-23 a8,8 0 0,1 0,-12 z" />
        <circle cx="28" cy="14" r="1.5" fill="#222" />
        <circle cx="38" cy="14" r="1.5" fill="#222" />
        <circle cx="25" cy="16" r="2.5" fill="#f43f5e" opacity="0.6" />
        <circle cx="41" cy="16" r="2.5" fill="#f43f5e" opacity="0.6" />
      </g>
      
      <g transform="translate(420, 525)" fill="white">
        <path d="M20,10 a10,10 0 0,1 18,-2 a8,8 0 0,1 11,8 a6,6 0 0,1 -6,6 h-23 a8,8 0 0,1 0,-12 z" />
        <circle cx="28" cy="14" r="1.5" fill="#222" />
        <circle cx="38" cy="14" r="1.5" fill="#222" />
        <circle cx="25" cy="16" r="2.5" fill="#f43f5e" opacity="0.6" />
        <circle cx="41" cy="16" r="2.5" fill="#f43f5e" opacity="0.6" />
      </g>
      
      <path d="M10,0 L12,4 L16,5 L12,6 L10,10 L8,6 L4,5 L8,4 Z" fill="white" opacity="0.9" transform="translate(200, 100) scale(1.5)" />
      <path d="M10,0 L12,4 L16,5 L12,6 L10,10 L8,6 L4,5 L8,4 Z" fill="white" opacity="0.9" transform="translate(380, 120) scale(1.5)" />
      
      <text x="300" y="655" font-family="'Plus Jakarta Sans', sans-serif" font-weight="800" font-size="24" fill="#0284c7" text-anchor="middle" letter-spacing="1">Dreamy Skies</text>
    
      
      <!-- Branding Logo Text -->
      <text x="300" y="680" font-family="'Plus Jakarta Sans', 'Outfit', sans-serif" font-weight="800" font-size="15" fill="#0284c7" letter-spacing="3" text-anchor="middle">SNAPVIBE ✦ STUDIO</text>
    </svg>