<svg xmlns="http://www.w3.org/2000/svg" width="180" height="300" viewBox="0 0 600 1000">
      <defs>
        <mask id="hole-mask">
          <rect width="600" height="1000" fill="white" /><rect x="40" y="80" width="230" height="230" rx="20" ry="20" fill="black" /><rect x="330" y="80" width="230" height="230" rx="20" ry="20" fill="black" /><rect x="40" y="360" width="230" height="230" rx="20" ry="20" fill="black" /><rect x="330" y="360" width="230" height="230" rx="20" ry="20" fill="black" /><rect x="40" y="640" width="230" height="230" rx="20" ry="20" fill="black" /><rect x="330" y="640" width="230" height="230" rx="20" ry="20" fill="black" />
        </mask>
        
      <pattern id="postage-stripes" width="60" height="20" patternUnits="userSpaceOnUse">
        <rect width="30" height="20" fill="#6b1d1d" />
        <rect x="30" width="30" height="20" fill="#7ca2b8" />
      </pattern>
    
      </defs>
      <!-- Base Background Card -->
      <rect width="600" height="1000" fill="url(#postage-stripes)" mask="url(#hole-mask)" />
      
      <!-- Slot outlines (adds a very nice border around punched slots for photo alignment) -->
      <rect x="40" y="80" width="230" height="230" rx="20" ry="20" fill="none" stroke="#6b1d1d" stroke-width="4" opacity="0.3" />
<rect x="330" y="80" width="230" height="230" rx="20" ry="20" fill="none" stroke="#6b1d1d" stroke-width="4" opacity="0.3" />
<rect x="40" y="360" width="230" height="230" rx="20" ry="20" fill="none" stroke="#6b1d1d" stroke-width="4" opacity="0.3" />
<rect x="330" y="360" width="230" height="230" rx="20" ry="20" fill="none" stroke="#6b1d1d" stroke-width="4" opacity="0.3" />
<rect x="40" y="640" width="230" height="230" rx="20" ry="20" fill="none" stroke="#6b1d1d" stroke-width="4" opacity="0.3" />
<rect x="330" y="640" width="230" height="230" rx="20" ry="20" fill="none" stroke="#6b1d1d" stroke-width="4" opacity="0.3" />
      
      <!-- Outer Border -->
      <rect width="600" height="1000" fill="none" stroke="#6b1d1d" stroke-width="12" />
      
      <!-- Decorations Layer -->
      
      
        <rect x="28" y="68" width="254" height="254" fill="#fffdeb" mask="url(#hole-mask)" />
        <circle cx="36" cy="68" r="6" fill="url(#postage-stripes)" /><circle cx="36" cy="322" r="6" fill="url(#postage-stripes)" /><circle cx="52" cy="68" r="6" fill="url(#postage-stripes)" /><circle cx="52" cy="322" r="6" fill="url(#postage-stripes)" /><circle cx="68" cy="68" r="6" fill="url(#postage-stripes)" /><circle cx="68" cy="322" r="6" fill="url(#postage-stripes)" /><circle cx="84" cy="68" r="6" fill="url(#postage-stripes)" /><circle cx="84" cy="322" r="6" fill="url(#postage-stripes)" /><circle cx="100" cy="68" r="6" fill="url(#postage-stripes)" /><circle cx="100" cy="322" r="6" fill="url(#postage-stripes)" /><circle cx="116" cy="68" r="6" fill="url(#postage-stripes)" /><circle cx="116" cy="322" r="6" fill="url(#postage-stripes)" /><circle cx="132" cy="68" r="6" fill="url(#postage-stripes)" /><circle cx="132" cy="322" r="6" fill="url(#postage-stripes)" /><circle cx="148" cy="68" r="6" fill="url(#postage-stripes)" /><circle cx="148" cy="322" r="6" fill="url(#postage-stripes)" /><circle cx="164" cy="68" r="6" fill="url(#postage-stripes)" /><circle cx="164" cy="322" r="6" fill="url(#postage-stripes)" /><circle cx="180" cy="68" r="6" fill="url(#postage-stripes)" /><circle cx="180" cy="322" r="6" fill="url(#postage-stripes)" /><circle cx="196" cy="68" r="6" fill="url(#postage-stripes)" /><circle cx="196" cy="322" r="6" fill="url(#postage-stripes)" /><circle cx="212" cy="68" r="6" fill="url(#postage-stripes)" /><circle cx="212" cy="322" r="6" fill="url(#postage-stripes)" /><circle cx="228" cy="68" r="6" fill="url(#postage-stripes)" /><circle cx="228" cy="322" r="6" fill="url(#postage-stripes)" /><circle cx="244" cy="68" r="6" fill="url(#postage-stripes)" /><circle cx="244" cy="322" r="6" fill="url(#postage-stripes)" /><circle cx="260" cy="68" r="6" fill="url(#postage-stripes)" /><circle cx="260" cy="322" r="6" fill="url(#postage-stripes)" /><circle cx="28" cy="76" r="6" fill="url(#postage-stripes)" /><circle cx="282" cy="76" r="6" fill="url(#postage-stripes)" /><circle cx="28" cy="92" r="6" fill="url(#postage-stripes)" /><circle cx="282" cy="92" r="6" fill="url(#postage-stripes)" /><circle cx="28" cy="108" r="6" fill="url(#postage-stripes)" /><circle cx="282" cy="108" r="6" fill="url(#postage-stripes)" /><circle cx="28" cy="124" r="6" fill="url(#postage-stripes)" /><circle cx="282" cy="124" r="6" fill="url(#postage-stripes)" /><circle cx="28" cy="140" r="6" fill="url(#postage-stripes)" /><circle cx="282" cy="140" r="6" fill="url(#postage-stripes)" /><circle cx="28" cy="156" r="6" fill="url(#postage-stripes)" /><circle cx="282" cy="156" r="6" fill="url(#postage-stripes)" /><circle cx="28" cy="172" r="6" fill="url(#postage-stripes)" /><circle cx="282" cy="172" r="6" fill="url(#postage-stripes)" /><circle cx="28" cy="188" r="6" fill="url(#postage-stripes)" /><circle cx="282" cy="188" r="6" fill="url(#postage-stripes)" /><circle cx="28" cy="204" r="6" fill="url(#postage-stripes)" /><circle cx="282" cy="204" r="6" fill="url(#postage-stripes)" /><circle cx="28" cy="220" r="6" fill="url(#postage-stripes)" /><circle cx="282" cy="220" r="6" fill="url(#postage-stripes)" /><circle cx="28" cy="236" r="6" fill="url(#postage-stripes)" /><circle cx="282" cy="236" r="6" fill="url(#postage-stripes)" /><circle cx="28" cy="252" r="6" fill="url(#postage-stripes)" /><circle cx="282" cy="252" r="6" fill="url(#postage-stripes)" /><circle cx="28" cy="268" r="6" fill="url(#postage-stripes)" /><circle cx="282" cy="268" r="6" fill="url(#postage-stripes)" /><circle cx="28" cy="284" r="6" fill="url(#postage-stripes)" /><circle cx="282" cy="284" r="6" fill="url(#postage-stripes)" /><circle cx="28" cy="300" r="6" fill="url(#postage-stripes)" /><circle cx="282" cy="300" r="6" fill="url(#postage-stripes)" />
      
        <rect x="318" y="68" width="254" height="254" fill="#fffdeb" mask="url(#hole-mask)" />
        <circle cx="326" cy="68" r="6" fill="url(#postage-stripes)" /><circle cx="326" cy="322" r="6" fill="url(#postage-stripes)" /><circle cx="342" cy="68" r="6" fill="url(#postage-stripes)" /><circle cx="342" cy="322" r="6" fill="url(#postage-stripes)" /><circle cx="358" cy="68" r="6" fill="url(#postage-stripes)" /><circle cx="358" cy="322" r="6" fill="url(#postage-stripes)" /><circle cx="374" cy="68" r="6" fill="url(#postage-stripes)" /><circle cx="374" cy="322" r="6" fill="url(#postage-stripes)" /><circle cx="390" cy="68" r="6" fill="url(#postage-stripes)" /><circle cx="390" cy="322" r="6" fill="url(#postage-stripes)" /><circle cx="406" cy="68" r="6" fill="url(#postage-stripes)" /><circle cx="406" cy="322" r="6" fill="url(#postage-stripes)" /><circle cx="422" cy="68" r="6" fill="url(#postage-stripes)" /><circle cx="422" cy="322" r="6" fill="url(#postage-stripes)" /><circle cx="438" cy="68" r="6" fill="url(#postage-stripes)" /><circle cx="438" cy="322" r="6" fill="url(#postage-stripes)" /><circle cx="454" cy="68" r="6" fill="url(#postage-stripes)" /><circle cx="454" cy="322" r="6" fill="url(#postage-stripes)" /><circle cx="470" cy="68" r="6" fill="url(#postage-stripes)" /><circle cx="470" cy="322" r="6" fill="url(#postage-stripes)" /><circle cx="486" cy="68" r="6" fill="url(#postage-stripes)" /><circle cx="486" cy="322" r="6" fill="url(#postage-stripes)" /><circle cx="502" cy="68" r="6" fill="url(#postage-stripes)" /><circle cx="502" cy="322" r="6" fill="url(#postage-stripes)" /><circle cx="518" cy="68" r="6" fill="url(#postage-stripes)" /><circle cx="518" cy="322" r="6" fill="url(#postage-stripes)" /><circle cx="534" cy="68" r="6" fill="url(#postage-stripes)" /><circle cx="534" cy="322" r="6" fill="url(#postage-stripes)" /><circle cx="550" cy="68" r="6" fill="url(#postage-stripes)" /><circle cx="550" cy="322" r="6" fill="url(#postage-stripes)" /><circle cx="318" cy="76" r="6" fill="url(#postage-stripes)" /><circle cx="572" cy="76" r="6" fill="url(#postage-stripes)" /><circle cx="318" cy="92" r="6" fill="url(#postage-stripes)" /><circle cx="572" cy="92" r="6" fill="url(#postage-stripes)" /><circle cx="318" cy="108" r="6" fill="url(#postage-stripes)" /><circle cx="572" cy="108" r="6" fill="url(#postage-stripes)" /><circle cx="318" cy="124" r="6" fill="url(#postage-stripes)" /><circle cx="572" cy="124" r="6" fill="url(#postage-stripes)" /><circle cx="318" cy="140" r="6" fill="url(#postage-stripes)" /><circle cx="572" cy="140" r="6" fill="url(#postage-stripes)" /><circle cx="318" cy="156" r="6" fill="url(#postage-stripes)" /><circle cx="572" cy="156" r="6" fill="url(#postage-stripes)" /><circle cx="318" cy="172" r="6" fill="url(#postage-stripes)" /><circle cx="572" cy="172" r="6" fill="url(#postage-stripes)" /><circle cx="318" cy="188" r="6" fill="url(#postage-stripes)" /><circle cx="572" cy="188" r="6" fill="url(#postage-stripes)" /><circle cx="318" cy="204" r="6" fill="url(#postage-stripes)" /><circle cx="572" cy="204" r="6" fill="url(#postage-stripes)" /><circle cx="318" cy="220" r="6" fill="url(#postage-stripes)" /><circle cx="572" cy="220" r="6" fill="url(#postage-stripes)" /><circle cx="318" cy="236" r="6" fill="url(#postage-stripes)" /><circle cx="572" cy="236" r="6" fill="url(#postage-stripes)" /><circle cx="318" cy="252" r="6" fill="url(#postage-stripes)" /><circle cx="572" cy="252" r="6" fill="url(#postage-stripes)" /><circle cx="318" cy="268" r="6" fill="url(#postage-stripes)" /><circle cx="572" cy="268" r="6" fill="url(#postage-stripes)" /><circle cx="318" cy="284" r="6" fill="url(#postage-stripes)" /><circle cx="572" cy="284" r="6" fill="url(#postage-stripes)" /><circle cx="318" cy="300" r="6" fill="url(#postage-stripes)" /><circle cx="572" cy="300" r="6" fill="url(#postage-stripes)" />
      
        <rect x="28" y="348" width="254" height="254" fill="#fffdeb" mask="url(#hole-mask)" />
        <circle cx="36" cy="348" r="6" fill="url(#postage-stripes)" /><circle cx="36" cy="602" r="6" fill="url(#postage-stripes)" /><circle cx="52" cy="348" r="6" fill="url(#postage-stripes)" /><circle cx="52" cy="602" r="6" fill="url(#postage-stripes)" /><circle cx="68" cy="348" r="6" fill="url(#postage-stripes)" /><circle cx="68" cy="602" r="6" fill="url(#postage-stripes)" /><circle cx="84" cy="348" r="6" fill="url(#postage-stripes)" /><circle cx="84" cy="602" r="6" fill="url(#postage-stripes)" /><circle cx="100" cy="348" r="6" fill="url(#postage-stripes)" /><circle cx="100" cy="602" r="6" fill="url(#postage-stripes)" /><circle cx="116" cy="348" r="6" fill="url(#postage-stripes)" /><circle cx="116" cy="602" r="6" fill="url(#postage-stripes)" /><circle cx="132" cy="348" r="6" fill="url(#postage-stripes)" /><circle cx="132" cy="602" r="6" fill="url(#postage-stripes)" /><circle cx="148" cy="348" r="6" fill="url(#postage-stripes)" /><circle cx="148" cy="602" r="6" fill="url(#postage-stripes)" /><circle cx="164" cy="348" r="6" fill="url(#postage-stripes)" /><circle cx="164" cy="602" r="6" fill="url(#postage-stripes)" /><circle cx="180" cy="348" r="6" fill="url(#postage-stripes)" /><circle cx="180" cy="602" r="6" fill="url(#postage-stripes)" /><circle cx="196" cy="348" r="6" fill="url(#postage-stripes)" /><circle cx="196" cy="602" r="6" fill="url(#postage-stripes)" /><circle cx="212" cy="348" r="6" fill="url(#postage-stripes)" /><circle cx="212" cy="602" r="6" fill="url(#postage-stripes)" /><circle cx="228" cy="348" r="6" fill="url(#postage-stripes)" /><circle cx="228" cy="602" r="6" fill="url(#postage-stripes)" /><circle cx="244" cy="348" r="6" fill="url(#postage-stripes)" /><circle cx="244" cy="602" r="6" fill="url(#postage-stripes)" /><circle cx="260" cy="348" r="6" fill="url(#postage-stripes)" /><circle cx="260" cy="602" r="6" fill="url(#postage-stripes)" /><circle cx="28" cy="356" r="6" fill="url(#postage-stripes)" /><circle cx="282" cy="356" r="6" fill="url(#postage-stripes)" /><circle cx="28" cy="372" r="6" fill="url(#postage-stripes)" /><circle cx="282" cy="372" r="6" fill="url(#postage-stripes)" /><circle cx="28" cy="388" r="6" fill="url(#postage-stripes)" /><circle cx="282" cy="388" r="6" fill="url(#postage-stripes)" /><circle cx="28" cy="404" r="6" fill="url(#postage-stripes)" /><circle cx="282" cy="404" r="6" fill="url(#postage-stripes)" /><circle cx="28" cy="420" r="6" fill="url(#postage-stripes)" /><circle cx="282" cy="420" r="6" fill="url(#postage-stripes)" /><circle cx="28" cy="436" r="6" fill="url(#postage-stripes)" /><circle cx="282" cy="436" r="6" fill="url(#postage-stripes)" /><circle cx="28" cy="452" r="6" fill="url(#postage-stripes)" /><circle cx="282" cy="452" r="6" fill="url(#postage-stripes)" /><circle cx="28" cy="468" r="6" fill="url(#postage-stripes)" /><circle cx="282" cy="468" r="6" fill="url(#postage-stripes)" /><circle cx="28" cy="484" r="6" fill="url(#postage-stripes)" /><circle cx="282" cy="484" r="6" fill="url(#postage-stripes)" /><circle cx="28" cy="500" r="6" fill="url(#postage-stripes)" /><circle cx="282" cy="500" r="6" fill="url(#postage-stripes)" /><circle cx="28" cy="516" r="6" fill="url(#postage-stripes)" /><circle cx="282" cy="516" r="6" fill="url(#postage-stripes)" /><circle cx="28" cy="532" r="6" fill="url(#postage-stripes)" /><circle cx="282" cy="532" r="6" fill="url(#postage-stripes)" /><circle cx="28" cy="548" r="6" fill="url(#postage-stripes)" /><circle cx="282" cy="548" r="6" fill="url(#postage-stripes)" /><circle cx="28" cy="564" r="6" fill="url(#postage-stripes)" /><circle cx="282" cy="564" r="6" fill="url(#postage-stripes)" /><circle cx="28" cy="580" r="6" fill="url(#postage-stripes)" /><circle cx="282" cy="580" r="6" fill="url(#postage-stripes)" />
      
        <rect x="318" y="348" width="254" height="254" fill="#fffdeb" mask="url(#hole-mask)" />
        <circle cx="326" cy="348" r="6" fill="url(#postage-stripes)" /><circle cx="326" cy="602" r="6" fill="url(#postage-stripes)" /><circle cx="342" cy="348" r="6" fill="url(#postage-stripes)" /><circle cx="342" cy="602" r="6" fill="url(#postage-stripes)" /><circle cx="358" cy="348" r="6" fill="url(#postage-stripes)" /><circle cx="358" cy="602" r="6" fill="url(#postage-stripes)" /><circle cx="374" cy="348" r="6" fill="url(#postage-stripes)" /><circle cx="374" cy="602" r="6" fill="url(#postage-stripes)" /><circle cx="390" cy="348" r="6" fill="url(#postage-stripes)" /><circle cx="390" cy="602" r="6" fill="url(#postage-stripes)" /><circle cx="406" cy="348" r="6" fill="url(#postage-stripes)" /><circle cx="406" cy="602" r="6" fill="url(#postage-stripes)" /><circle cx="422" cy="348" r="6" fill="url(#postage-stripes)" /><circle cx="422" cy="602" r="6" fill="url(#postage-stripes)" /><circle cx="438" cy="348" r="6" fill="url(#postage-stripes)" /><circle cx="438" cy="602" r="6" fill="url(#postage-stripes)" /><circle cx="454" cy="348" r="6" fill="url(#postage-stripes)" /><circle cx="454" cy="602" r="6" fill="url(#postage-stripes)" /><circle cx="470" cy="348" r="6" fill="url(#postage-stripes)" /><circle cx="470" cy="602" r="6" fill="url(#postage-stripes)" /><circle cx="486" cy="348" r="6" fill="url(#postage-stripes)" /><circle cx="486" cy="602" r="6" fill="url(#postage-stripes)" /><circle cx="502" cy="348" r="6" fill="url(#postage-stripes)" /><circle cx="502" cy="602" r="6" fill="url(#postage-stripes)" /><circle cx="518" cy="348" r="6" fill="url(#postage-stripes)" /><circle cx="518" cy="602" r="6" fill="url(#postage-stripes)" /><circle cx="534" cy="348" r="6" fill="url(#postage-stripes)" /><circle cx="534" cy="602" r="6" fill="url(#postage-stripes)" /><circle cx="550" cy="348" r="6" fill="url(#postage-stripes)" /><circle cx="550" cy="602" r="6" fill="url(#postage-stripes)" /><circle cx="318" cy="356" r="6" fill="url(#postage-stripes)" /><circle cx="572" cy="356" r="6" fill="url(#postage-stripes)" /><circle cx="318" cy="372" r="6" fill="url(#postage-stripes)" /><circle cx="572" cy="372" r="6" fill="url(#postage-stripes)" /><circle cx="318" cy="388" r="6" fill="url(#postage-stripes)" /><circle cx="572" cy="388" r="6" fill="url(#postage-stripes)" /><circle cx="318" cy="404" r="6" fill="url(#postage-stripes)" /><circle cx="572" cy="404" r="6" fill="url(#postage-stripes)" /><circle cx="318" cy="420" r="6" fill="url(#postage-stripes)" /><circle cx="572" cy="420" r="6" fill="url(#postage-stripes)" /><circle cx="318" cy="436" r="6" fill="url(#postage-stripes)" /><circle cx="572" cy="436" r="6" fill="url(#postage-stripes)" /><circle cx="318" cy="452" r="6" fill="url(#postage-stripes)" /><circle cx="572" cy="452" r="6" fill="url(#postage-stripes)" /><circle cx="318" cy="468" r="6" fill="url(#postage-stripes)" /><circle cx="572" cy="468" r="6" fill="url(#postage-stripes)" /><circle cx="318" cy="484" r="6" fill="url(#postage-stripes)" /><circle cx="572" cy="484" r="6" fill="url(#postage-stripes)" /><circle cx="318" cy="500" r="6" fill="url(#postage-stripes)" /><circle cx="572" cy="500" r="6" fill="url(#postage-stripes)" /><circle cx="318" cy="516" r="6" fill="url(#postage-stripes)" /><circle cx="572" cy="516" r="6" fill="url(#postage-stripes)" /><circle cx="318" cy="532" r="6" fill="url(#postage-stripes)" /><circle cx="572" cy="532" r="6" fill="url(#postage-stripes)" /><circle cx="318" cy="548" r="6" fill="url(#postage-stripes)" /><circle cx="572" cy="548" r="6" fill="url(#postage-stripes)" /><circle cx="318" cy="564" r="6" fill="url(#postage-stripes)" /><circle cx="572" cy="564" r="6" fill="url(#postage-stripes)" /><circle cx="318" cy="580" r="6" fill="url(#postage-stripes)" /><circle cx="572" cy="580" r="6" fill="url(#postage-stripes)" />
      
        <rect x="28" y="628" width="254" height="254" fill="#fffdeb" mask="url(#hole-mask)" />
        <circle cx="36" cy="628" r="6" fill="url(#postage-stripes)" /><circle cx="36" cy="882" r="6" fill="url(#postage-stripes)" /><circle cx="52" cy="628" r="6" fill="url(#postage-stripes)" /><circle cx="52" cy="882" r="6" fill="url(#postage-stripes)" /><circle cx="68" cy="628" r="6" fill="url(#postage-stripes)" /><circle cx="68" cy="882" r="6" fill="url(#postage-stripes)" /><circle cx="84" cy="628" r="6" fill="url(#postage-stripes)" /><circle cx="84" cy="882" r="6" fill="url(#postage-stripes)" /><circle cx="100" cy="628" r="6" fill="url(#postage-stripes)" /><circle cx="100" cy="882" r="6" fill="url(#postage-stripes)" /><circle cx="116" cy="628" r="6" fill="url(#postage-stripes)" /><circle cx="116" cy="882" r="6" fill="url(#postage-stripes)" /><circle cx="132" cy="628" r="6" fill="url(#postage-stripes)" /><circle cx="132" cy="882" r="6" fill="url(#postage-stripes)" /><circle cx="148" cy="628" r="6" fill="url(#postage-stripes)" /><circle cx="148" cy="882" r="6" fill="url(#postage-stripes)" /><circle cx="164" cy="628" r="6" fill="url(#postage-stripes)" /><circle cx="164" cy="882" r="6" fill="url(#postage-stripes)" /><circle cx="180" cy="628" r="6" fill="url(#postage-stripes)" /><circle cx="180" cy="882" r="6" fill="url(#postage-stripes)" /><circle cx="196" cy="628" r="6" fill="url(#postage-stripes)" /><circle cx="196" cy="882" r="6" fill="url(#postage-stripes)" /><circle cx="212" cy="628" r="6" fill="url(#postage-stripes)" /><circle cx="212" cy="882" r="6" fill="url(#postage-stripes)" /><circle cx="228" cy="628" r="6" fill="url(#postage-stripes)" /><circle cx="228" cy="882" r="6" fill="url(#postage-stripes)" /><circle cx="244" cy="628" r="6" fill="url(#postage-stripes)" /><circle cx="244" cy="882" r="6" fill="url(#postage-stripes)" /><circle cx="260" cy="628" r="6" fill="url(#postage-stripes)" /><circle cx="260" cy="882" r="6" fill="url(#postage-stripes)" /><circle cx="28" cy="636" r="6" fill="url(#postage-stripes)" /><circle cx="282" cy="636" r="6" fill="url(#postage-stripes)" /><circle cx="28" cy="652" r="6" fill="url(#postage-stripes)" /><circle cx="282" cy="652" r="6" fill="url(#postage-stripes)" /><circle cx="28" cy="668" r="6" fill="url(#postage-stripes)" /><circle cx="282" cy="668" r="6" fill="url(#postage-stripes)" /><circle cx="28" cy="684" r="6" fill="url(#postage-stripes)" /><circle cx="282" cy="684" r="6" fill="url(#postage-stripes)" /><circle cx="28" cy="700" r="6" fill="url(#postage-stripes)" /><circle cx="282" cy="700" r="6" fill="url(#postage-stripes)" /><circle cx="28" cy="716" r="6" fill="url(#postage-stripes)" /><circle cx="282" cy="716" r="6" fill="url(#postage-stripes)" /><circle cx="28" cy="732" r="6" fill="url(#postage-stripes)" /><circle cx="282" cy="732" r="6" fill="url(#postage-stripes)" /><circle cx="28" cy="748" r="6" fill="url(#postage-stripes)" /><circle cx="282" cy="748" r="6" fill="url(#postage-stripes)" /><circle cx="28" cy="764" r="6" fill="url(#postage-stripes)" /><circle cx="282" cy="764" r="6" fill="url(#postage-stripes)" /><circle cx="28" cy="780" r="6" fill="url(#postage-stripes)" /><circle cx="282" cy="780" r="6" fill="url(#postage-stripes)" /><circle cx="28" cy="796" r="6" fill="url(#postage-stripes)" /><circle cx="282" cy="796" r="6" fill="url(#postage-stripes)" /><circle cx="28" cy="812" r="6" fill="url(#postage-stripes)" /><circle cx="282" cy="812" r="6" fill="url(#postage-stripes)" /><circle cx="28" cy="828" r="6" fill="url(#postage-stripes)" /><circle cx="282" cy="828" r="6" fill="url(#postage-stripes)" /><circle cx="28" cy="844" r="6" fill="url(#postage-stripes)" /><circle cx="282" cy="844" r="6" fill="url(#postage-stripes)" /><circle cx="28" cy="860" r="6" fill="url(#postage-stripes)" /><circle cx="282" cy="860" r="6" fill="url(#postage-stripes)" />
      
        <rect x="318" y="628" width="254" height="254" fill="#fffdeb" mask="url(#hole-mask)" />
        <circle cx="326" cy="628" r="6" fill="url(#postage-stripes)" /><circle cx="326" cy="882" r="6" fill="url(#postage-stripes)" /><circle cx="342" cy="628" r="6" fill="url(#postage-stripes)" /><circle cx="342" cy="882" r="6" fill="url(#postage-stripes)" /><circle cx="358" cy="628" r="6" fill="url(#postage-stripes)" /><circle cx="358" cy="882" r="6" fill="url(#postage-stripes)" /><circle cx="374" cy="628" r="6" fill="url(#postage-stripes)" /><circle cx="374" cy="882" r="6" fill="url(#postage-stripes)" /><circle cx="390" cy="628" r="6" fill="url(#postage-stripes)" /><circle cx="390" cy="882" r="6" fill="url(#postage-stripes)" /><circle cx="406" cy="628" r="6" fill="url(#postage-stripes)" /><circle cx="406" cy="882" r="6" fill="url(#postage-stripes)" /><circle cx="422" cy="628" r="6" fill="url(#postage-stripes)" /><circle cx="422" cy="882" r="6" fill="url(#postage-stripes)" /><circle cx="438" cy="628" r="6" fill="url(#postage-stripes)" /><circle cx="438" cy="882" r="6" fill="url(#postage-stripes)" /><circle cx="454" cy="628" r="6" fill="url(#postage-stripes)" /><circle cx="454" cy="882" r="6" fill="url(#postage-stripes)" /><circle cx="470" cy="628" r="6" fill="url(#postage-stripes)" /><circle cx="470" cy="882" r="6" fill="url(#postage-stripes)" /><circle cx="486" cy="628" r="6" fill="url(#postage-stripes)" /><circle cx="486" cy="882" r="6" fill="url(#postage-stripes)" /><circle cx="502" cy="628" r="6" fill="url(#postage-stripes)" /><circle cx="502" cy="882" r="6" fill="url(#postage-stripes)" /><circle cx="518" cy="628" r="6" fill="url(#postage-stripes)" /><circle cx="518" cy="882" r="6" fill="url(#postage-stripes)" /><circle cx="534" cy="628" r="6" fill="url(#postage-stripes)" /><circle cx="534" cy="882" r="6" fill="url(#postage-stripes)" /><circle cx="550" cy="628" r="6" fill="url(#postage-stripes)" /><circle cx="550" cy="882" r="6" fill="url(#postage-stripes)" /><circle cx="318" cy="636" r="6" fill="url(#postage-stripes)" /><circle cx="572" cy="636" r="6" fill="url(#postage-stripes)" /><circle cx="318" cy="652" r="6" fill="url(#postage-stripes)" /><circle cx="572" cy="652" r="6" fill="url(#postage-stripes)" /><circle cx="318" cy="668" r="6" fill="url(#postage-stripes)" /><circle cx="572" cy="668" r="6" fill="url(#postage-stripes)" /><circle cx="318" cy="684" r="6" fill="url(#postage-stripes)" /><circle cx="572" cy="684" r="6" fill="url(#postage-stripes)" /><circle cx="318" cy="700" r="6" fill="url(#postage-stripes)" /><circle cx="572" cy="700" r="6" fill="url(#postage-stripes)" /><circle cx="318" cy="716" r="6" fill="url(#postage-stripes)" /><circle cx="572" cy="716" r="6" fill="url(#postage-stripes)" /><circle cx="318" cy="732" r="6" fill="url(#postage-stripes)" /><circle cx="572" cy="732" r="6" fill="url(#postage-stripes)" /><circle cx="318" cy="748" r="6" fill="url(#postage-stripes)" /><circle cx="572" cy="748" r="6" fill="url(#postage-stripes)" /><circle cx="318" cy="764" r="6" fill="url(#postage-stripes)" /><circle cx="572" cy="764" r="6" fill="url(#postage-stripes)" /><circle cx="318" cy="780" r="6" fill="url(#postage-stripes)" /><circle cx="572" cy="780" r="6" fill="url(#postage-stripes)" /><circle cx="318" cy="796" r="6" fill="url(#postage-stripes)" /><circle cx="572" cy="796" r="6" fill="url(#postage-stripes)" /><circle cx="318" cy="812" r="6" fill="url(#postage-stripes)" /><circle cx="572" cy="812" r="6" fill="url(#postage-stripes)" /><circle cx="318" cy="828" r="6" fill="url(#postage-stripes)" /><circle cx="572" cy="828" r="6" fill="url(#postage-stripes)" /><circle cx="318" cy="844" r="6" fill="url(#postage-stripes)" /><circle cx="572" cy="844" r="6" fill="url(#postage-stripes)" /><circle cx="318" cy="860" r="6" fill="url(#postage-stripes)" /><circle cx="572" cy="860" r="6" fill="url(#postage-stripes)" />
      
      <rect x="0" y="860" width="600" height="140" fill="#fffdeb" />
      <text x="150" y="930" font-family="'Sacramento', 'Dancing Script', cursive" font-weight="bold" font-size="28" fill="#6b1d1d" text-anchor="middle">capture the moments</text>
      <text x="450" y="930" font-family="'Sacramento', 'Dancing Script', cursive" font-weight="bold" font-size="28" fill="#6b1d1d" text-anchor="middle">capture the moments</text>
      <line x1="0" y1="985" x2="600" y2="985" stroke="#222" stroke-width="4" stroke-dasharray="3,3" />
    
      
      <!-- Branding Logo Text -->
      <text x="300" y="975" font-family="'Plus Jakarta Sans', 'Outfit', sans-serif" font-weight="800" font-size="14" fill="#6b1d1d" letter-spacing="3" text-anchor="middle">SNAPVIBE ✦ MEMORIES</text>
    </svg>